<svg xmlns="http://www.w3.org/2000/svg" viewBox="0 0 286.15 123.18">
    <defs>
        <style>
            .cls-1 {
                fill: none;
            }
        </style>
    </defs>
    <g id="Layer_2" data-name="Layer 2">
        <g id="레이어_1" data-name="레이어 1">
            <path class="cls-1"
                d="M23.43,26.74a7.08,7.08,0,0,1,4.45,7.65,8.71,8.71,0,0,1-3.64,5.36,17.31,17.31,0,0,1-6.09,2.53,34.82,34.82,0,0,1-9.76.91,11.85,11.85,0,0,1-5.72-1.44,5.2,5.2,0,0,1-2.62-5A6.77,6.77,0,0,1,2.63,33C7.17,29.12,13.12,27.34,19,26.43m13.6,26.25c6.61-13.47,18.08-24.39,22.91-38.59m-34,37.61-11,6.35c-.43.25-.93.63-.83,1.12s.48.58.83.72a30.36,30.36,0,0,0,7.63,1.57q15.63,1.78,31.39,2.13m11-40.71,6.25,9.35M55.84,34.09l9.24.69a1.42,1.42,0,0,1,.9.3,1.27,1.27,0,0,1,.23.92c0,1.83-.38,3.64-.45,5.47A8.34,8.34,0,0,0,67,46.7a4.2,4.2,0,0,0,4.81,1.63,4.45,4.45,0,0,0,2.27-4.55,12.88,12.88,0,0,0-2-5m5.67-5.64,2,13.38a43.29,43.29,0,0,1,12.46-1.56m33.14-26.52c-3.07-.12-5.19,3.06-6.12,6a12.92,12.92,0,0,0-.61,6.62,6.42,6.42,0,0,0,4.15,4.88,7.51,7.51,0,0,0,6.1-1.36,11.4,11.4,0,0,0,4.68-6,8.26,8.26,0,0,0-1.15-7.36m16.74,19.44a223.79,223.79,0,0,0-43.56,3.14m27.42-6.56-.42,25.66M145.25,41a76.82,76.82,0,0,0-1.45,24.19m22.54-41.69q-7.71-11.91-16-23.46m0,20.14a147.72,147.72,0,0,1,20.25,1.76,63.46,63.46,0,0,0-5.41,16.15c-.22,1.13-.33,2.51.57,3.24a3,3,0,0,0,2.29.38,12.24,12.24,0,0,0,10-13.46c-.32-2.06-1.19-4.12-.75-6.15a123.64,123.64,0,0,1,16.89.05l-1.38,1m-9.66,6.73c2-.66,4.19-.52,6.3-.79s4.36-1.12,5.31-3a7.54,7.54,0,0,0,.61-2.78,43.51,43.51,0,0,0-.35-9.81M193.18,19l-1.84,25.68m-16.07,3c1.89,4.37,2.34,9.89,6.34,12.47,2.69,1.74,6.17,1.51,9.32.93a52.69,52.69,0,0,0,13.72-4.55M72,82.12,48.25,101.33c-1,.8-2.1,2.09-1.44,3.19Q80,101.1,113.14,97.08m-18.54-20a270.29,270.29,0,0,0-8.11,40c-.25,2.06-.46,4.29.57,6.09M138.38,77a8.93,8.93,0,0,1,11-5.48A3.17,3.17,0,0,1,151,72.67c1.18,1.87-1.37,3.85-3.48,4.52a76.86,76.86,0,0,1-19.89,3.58,65.12,65.12,0,0,1,12.43,3.16,31.68,31.68,0,0,1-4.4,11.49,61.74,61.74,0,0,0,37.86-10q-12.84,11.75-26.14,22.95a99.08,99.08,0,0,1,16.23,1.22,33.42,33.42,0,0,1-5.84,8.21,94.81,94.81,0,0,0,32.75-.6m12.34-.55c5.8-1.23,12.25-2.92,15.28-8a12.08,12.08,0,0,0-.67-12.77,14.75,14.75,0,0,0-11.55-6c-2.5-.08-5.26.56-6.76,2.57.57.94,2,.63,3,.14a25.77,25.77,0,0,0,7.91-6.07c2.09-2.37,3.71-6,1.74-8.53-1.26-1.58-3.5-1.94-5.52-2.14q-5.82-.55-11.67-.57m31.69,8.53q-.65,8.44-.61,16.93a23.93,23.93,0,0,0,1.15,8.6c1,2.72,3.24,5.16,6.1,5.73a8,8,0,0,0,6.77-2.13,13,13,0,0,0,3.57-6.33c1.59-6,.14-12.5-2.94-17.87s-7.7-9.72-12.64-13.45M248.29,70a9.07,9.07,0,0,0-.14,8.09,7.28,7.28,0,0,0,1.22-14.23m19.66,5a63.64,63.64,0,0,1-7.73,23.72,72.26,72.26,0,0,1,11.1.68,3.64,3.64,0,0,1,2.34.94c1,1.19.18,3-.68,4.32l-12.88,19.73a67.65,67.65,0,0,0,25,.73" />
        </g>
    </g>
</svg>