<svg xmlns="http://www.w3.org/2000/svg" viewBox="0 0 87.36 76.76">
    <defs>
        <style>
            .cls-1 {
                fill: #231815;
            }
        </style>
    </defs>
    <g id="레이어_2" data-name="레이어 2">
        <g id="레이어_1-2" data-name="레이어 1">
            <path class="cls-1"
                d="M16.16,14.39A20.14,20.14,0,0,0,3.63,22,17.44,17.44,0,0,0,.2,29.06c-.66,3.31.36,6.08,2.32,8.74,3.25,4.4,7.75,8.48,13.63,7.58a17.89,17.89,0,0,0,7.72-3.71C26,40.1,28.35,38.45,29.48,36c1.42-3.09.66-6.73-.24-9.88s-2.85-6-6.14-6.66A2.57,2.57,0,0,0,20,21.16a2.54,2.54,0,0,0,1.75,3.08c1.73.35,2.36,2,2.76,3.57.44,1.7,1.21,4.08.56,5.8s-2.41,2.77-3.74,3.75a16.34,16.34,0,0,1-5.52,3C12.1,41.29,9,38.14,7,35.43,5.68,33.74,4.59,32.13,5.12,30a13.29,13.29,0,0,1,2.41-4.9,15.64,15.64,0,0,1,10-5.84,2.52,2.52,0,0,0,1.75-3.08,2.55,2.55,0,0,0-3.07-1.74Z" />
            <path class="cls-1"
                d="M40.66,1.79c-4.18,17.29-10.64,34-14.59,51.3a151.08,151.08,0,0,0-2.66,15.23,2.51,2.51,0,0,0,2.5,2.5,2.57,2.57,0,0,0,2.5-2.5c2.12-17.38,8.12-34,13.1-50.66,1.43-4.82,2.79-9.66,4-14.55.75-3.12-4.07-4.46-4.82-1.32Z" />
            <path class="cls-1"
                d="M6.74,53.38a49.61,49.61,0,0,0,8.62,20.83,5.79,5.79,0,0,0,5,2.54,25,25,0,0,0,6-1.16A101.83,101.83,0,0,0,38,71.2q6.49-2.76,12.81-5.92c2.88-1.43.35-5.75-2.52-4.31q-6.34,3.16-12.87,5.94a72,72,0,0,1-13,4.54c-.59.12-1.87.58-2.48.31s-1-1.29-1.33-1.76a49.67,49.67,0,0,1-3.17-5.71,48.5,48.5,0,0,1-3.8-12.23,2.5,2.5,0,1,0-4.82,1.32Z" />
            <path class="cls-1"
                d="M52,17.9c-.77,7.82,5.58,13.15,9.4,19.13a2.5,2.5,0,0,0,4.32-2.52C62.4,29.35,56.34,24.41,57,17.9a2.5,2.5,0,1,0-5,0Z" />
            <path class="cls-1"
                d="M47.35,36.77l17.59,1L62.79,34a35.65,35.65,0,0,0-4.15,9.26c-.75,3.14-1,7.35,1.71,9.7a5.41,5.41,0,0,0,4.95,1.29,5.86,5.86,0,0,0,3.59-3.38,13.51,13.51,0,0,0-4.5-16.62,2.52,2.52,0,0,0-3.42.9,2.55,2.55,0,0,0,.9,3.42A8.47,8.47,0,0,1,65,43.84a10.56,10.56,0,0,1,0,2.86,10.79,10.79,0,0,1-.49,1.77c.11-.27-.27.54-.33.63a1.49,1.49,0,0,1-.26.37c.28-.2-.31,0,.07,0s.21.05-.09,0h0a2.33,2.33,0,0,1-.34-.2c.17.11.15.06-.07-.14.14.19-.12-.26-.13-.28a7.08,7.08,0,0,1,0-3.69,29.59,29.59,0,0,1,3.75-8.56,2.53,2.53,0,0,0-2.16-3.76l-17.59-1a2.52,2.52,0,0,0-2.5,2.5,2.55,2.55,0,0,0,2.5,2.5Z" />
            <path class="cls-1"
                d="M68.37,23.86q.25,14,1.12,27.93a2.52,2.52,0,0,0,2.16,2.46,2.49,2.49,0,0,0,2.75-1.79c.22-1.23,2.16-1.51,3.35-1.76A35.54,35.54,0,0,1,85,50c3.22,0,3.22-5,0-5a37.87,37.87,0,0,0-9.72,1.11c-2.5.67-5.15,2.22-5.65,5l4.91.66q-.87-13.95-1.12-27.93c-.06-3.21-5.06-3.22-5,0Z" />
        </g>
    </g>
</svg>