<svg xmlns="http://www.w3.org/2000/svg" viewBox="0 0 27.67 37.9"><defs><style>.cls-1{fill:#231815;}</style></defs><g id="레이어_2" data-name="레이어 2"><g id="레이어_1-2" data-name="레이어 1"><path class="cls-1" d="M5,8.7a1.89,1.89,0,0,0,.47.06A2,2,0,0,0,7,8.06a4,4,0,0,0,.86-1.6,6.52,6.52,0,0,0,.27-1.77c0-.09,0-.19,0-.27a4.42,4.42,0,0,0-.42-1.57,3.71,3.71,0,0,0-1-1.27,2.07,2.07,0,0,0-1.35-.5,2,2,0,0,0-.47.06A2.12,2.12,0,0,0,3.67,2,4.22,4.22,0,0,0,3.08,3.4a6,6,0,0,0-.16,1.09c0,.15,0,.3,0,.45a5.54,5.54,0,0,0,.51,2.37A2.37,2.37,0,0,0,5,8.7ZM3.73,4.55A4.54,4.54,0,0,1,4.12,2.9a1.6,1.6,0,0,1,1-1,1.18,1.18,0,0,1,.27,0,1.31,1.31,0,0,1,.91.39,3.2,3.2,0,0,1,.69,1,3.23,3.23,0,0,1,.31,1.19,2.44,2.44,0,0,1,0,.27,5.38,5.38,0,0,1-.22,1.49A3.14,3.14,0,0,1,6.43,7.5a1.21,1.21,0,0,1-.93.44l-.3,0a1.52,1.52,0,0,1-.9-.66A3.14,3.14,0,0,1,3.85,6.1a5.91,5.91,0,0,1-.13-1.19C3.72,4.78,3.72,4.66,3.73,4.55Z"/><path class="cls-1" d="M15.2,6.31l-.78,0-.94,0V5.22c0-1.45-.05-2.91-.05-4.39a.41.41,0,0,0-.7-.29.35.35,0,0,0-.1.2s0,0,0,0a20.15,20.15,0,0,1-1.44,2.15L11.08,3c-.4.53-.79,1.08-1.16,1.64A10.52,10.52,0,0,0,9,6.42a.36.36,0,0,0,0,.14.42.42,0,0,0,0,.2A.4.4,0,0,0,9.3,7a14.49,14.49,0,0,0,2.45.22l.92,0c0,.79,0,1.57,0,2.35a.38.38,0,0,0,.12.29.38.38,0,0,0,.28.12.41.41,0,0,0,.41-.41c0-.78,0-1.58,0-2.37h1.73A.34.34,0,0,0,15.48,7a.45.45,0,0,0,.12-.28v0a.37.37,0,0,0-.11-.27A.43.43,0,0,0,15.2,6.31Zm-3.52.05A14.06,14.06,0,0,1,10,6.25a16,16,0,0,1,1.63-2.57,1.4,1.4,0,0,0,.13-.18c.32-.4.62-.81.9-1.24,0,1,0,2,0,3,0,.37,0,.74,0,1.1Z"/><path class="cls-1" d="M21.24,5.3q-.27,0-.33.15a.78.78,0,0,0-.07.26.58.58,0,0,0,.05.21.35.35,0,0,0,.35.2h.55A6.12,6.12,0,0,0,22.93,6c0,.08,0,.16,0,.24V6.6c0,.18.06.28.16.32a.79.79,0,0,0,.25.06.76.76,0,0,0,.21,0,.38.38,0,0,0,.2-.35c0-.79,0-1.58,0-2.38s0-1.6,0-2.4c0-.17-.07-.28-.17-.33a.65.65,0,0,0-.25-.06.32.32,0,0,0-.19.05.37.37,0,0,0-.22.34c0,.88,0,1.76,0,2.63,0,.25,0,.5,0,.75h0l-.11,0-.23,0H21.24Z"/><path class="cls-1" d="M18.19,4.22a2.61,2.61,0,0,0,.6.08,2.12,2.12,0,0,0,1-.24,2.15,2.15,0,0,0,1-1.25,2.31,2.31,0,0,0,.11-.69,2.29,2.29,0,0,0-.17-.84,2,2,0,0,0-1-1.09A2.44,2.44,0,0,0,18.8,0,1.58,1.58,0,0,0,18,.22a2.14,2.14,0,0,0-1,1.06,3,3,0,0,0-.25,1.07,2,2,0,0,0,.13.73A1.94,1.94,0,0,0,18.19,4.22ZM18,1.16a1.13,1.13,0,0,1,.81-.33,1.51,1.51,0,0,1,.57.11A1,1,0,0,1,20,1.5a1.92,1.92,0,0,1,.12.61A1.74,1.74,0,0,1,20,2.5a1.08,1.08,0,0,1-.52.78,1.59,1.59,0,0,1-.73.19,1.69,1.69,0,0,1-.38,0c-.58-.2-.87-.43-.88-.68s0-.39,0-.41A1.56,1.56,0,0,1,18,1.16Z"/><path class="cls-1" d="M16.67,5.4H17c.61,0,1.21,0,1.81-.06a2.55,2.55,0,0,1-.36,1.14.53.53,0,0,0-.05.2c0,.05,0,.08,0,.12-.27,0-.51.06-.67.06s-.29.08-.33.18a.56.56,0,0,0-.07.24.37.37,0,0,0,.05.2.34.34,0,0,0,.35.2,9.55,9.55,0,0,0,1.18-.1l.94-.08h.37a4.42,4.42,0,0,1,1.1.13q.24.06.27.15a.39.39,0,0,1,0,.14.39.39,0,0,1-.12.24.87.87,0,0,1-.5.23,4.48,4.48,0,0,1-.59.07H20.3l-.8,0h-.61a8.49,8.49,0,0,0-.88,0,.41.41,0,0,0-.41.41c0,.09,0,.18,0,.27a3.13,3.13,0,0,0,.13.89,1.24,1.24,0,0,0,.8.78,3.59,3.59,0,0,0,.93.12h.66a9.52,9.52,0,0,0,2.44-.35c.17-.07.26-.14.27-.23a1.39,1.39,0,0,0,0-.17.43.43,0,0,0-.1-.29.36.36,0,0,0-.28-.12l-.12,0a9.89,9.89,0,0,1-2.54.33h-.47a1,1,0,0,1-.72-.22.94.94,0,0,1-.18-.62h1.12a10.29,10.29,0,0,0,1.09-.05A2.71,2.71,0,0,0,22,8.86a1.12,1.12,0,0,0,.5-1,2.18,2.18,0,0,0,0-.25,1,1,0,0,0-.72-.81,4.36,4.36,0,0,0-1.26-.18l-.31,0c-.33,0-.64,0-.94.07a3.72,3.72,0,0,0,.39-1.43l.4,0,1.52-.12a.35.35,0,0,0,.33-.18.69.69,0,0,0,.06-.25.34.34,0,0,0-.05-.19.32.32,0,0,0-.34-.19l-1.47.12c-1.05.1-2.11.15-3.15.15h-.23q-.27,0-.33.15a.53.53,0,0,0-.07.25.43.43,0,0,0,0,.19A.4.4,0,0,0,16.67,5.4Z"/><path class="cls-1" d="M5.53,23.74a2.89,2.89,0,0,0,2.59-1.59,2.67,2.67,0,0,0,.24-1.07,2.34,2.34,0,0,0-.55-1.5,2.73,2.73,0,0,0-1-.76,2,2,0,0,0,.54-.63,1.63,1.63,0,0,0,.13-.32,1.33,1.33,0,0,0,.06-.42,1.88,1.88,0,0,0-.13-.66A2.93,2.93,0,0,0,7,16a2.27,2.27,0,0,0-.88-.54,3.63,3.63,0,0,0-1.14-.19,2.59,2.59,0,0,0-1.18.27A1.28,1.28,0,0,0,3,16.73a1.69,1.69,0,0,0,0,.38.44.44,0,0,0,.41.33l.09,0A.43.43,0,0,0,3.9,17a.28.28,0,0,0,0-.09.59.59,0,0,1,0-.21.43.43,0,0,1,.29-.42,1.7,1.7,0,0,1,.79-.17,2.81,2.81,0,0,1,.82.12,1.52,1.52,0,0,1,.6.33,2.33,2.33,0,0,1,.27.4,1.12,1.12,0,0,1,.11.47.94.94,0,0,1-.08.36,1.52,1.52,0,0,1-1,.68H5.4a3.23,3.23,0,0,0-.68.08.42.42,0,0,0-.24.14.41.41,0,0,0-.09.26v0a.4.4,0,0,0,.12.26.43.43,0,0,0,.25.13h.29a3.08,3.08,0,0,0,.61-.06,2.31,2.31,0,0,1,1.53.79,1.79,1.79,0,0,1,.25.41,1.35,1.35,0,0,1,.11.55,1.9,1.9,0,0,1-.18.75,2,2,0,0,1-1.86,1.09h-.1a2.53,2.53,0,0,1-1-.2A1.46,1.46,0,0,1,3.7,22a.45.45,0,0,0-.38-.22.41.41,0,0,0-.18.05.43.43,0,0,0-.22.37.39.39,0,0,0,0,.18,2.4,2.4,0,0,0,1,1,2.91,2.91,0,0,0,1.45.36Z"/><path class="cls-1" d="M14.16,17.25a3.71,3.71,0,0,0-1-1.27,2.07,2.07,0,0,0-1.34-.5,1.89,1.89,0,0,0-.47.06,2.09,2.09,0,0,0-1.27.89,4,4,0,0,0-.59,1.37,6.24,6.24,0,0,0-.17,1.09c0,.15,0,.3,0,.45a5.69,5.69,0,0,0,.5,2.37,2.42,2.42,0,0,0,1.62,1.39,2,2,0,0,0,.47.06,2,2,0,0,0,1.52-.7,3.93,3.93,0,0,0,.86-1.6,6.52,6.52,0,0,0,.27-1.77,2.35,2.35,0,0,0,0-.27A4.42,4.42,0,0,0,14.16,17.25Zm-.61,3.37a3.13,3.13,0,0,1-.67,1.28,1.25,1.25,0,0,1-.94.44,1.53,1.53,0,0,1-.3,0,1.58,1.58,0,0,1-.9-.66,3.14,3.14,0,0,1-.45-1.15,6.74,6.74,0,0,1-.13-1.19c0-.13,0-.25,0-.36a4.74,4.74,0,0,1,.38-1.65,1.6,1.6,0,0,1,1-1,1.27,1.27,0,0,1,.28,0,1.33,1.33,0,0,1,.91.39,3.33,3.33,0,0,1,1,2.17,2.45,2.45,0,0,1,0,.27A5.41,5.41,0,0,1,13.55,20.62Z"/><path class="cls-1" d="M23.47,14.21h-.14a.56.56,0,0,0-.33.1.42.42,0,0,0-.14.33v.08a13.25,13.25,0,0,1,.2,1.89c0,.54,0,1,0,1.36s0,.73,0,1.1,0,.7,0,1.06c0,.18.06.29.16.33a.74.74,0,0,0,.25.06.43.43,0,0,0,.19,0,.38.38,0,0,0,.22-.35c0-.32,0-.64,0-1s0-.62,0-.93c0-.47,0-.94,0-1.41a16.83,16.83,0,0,0-.22-2.34Q23.59,14.24,23.47,14.21Z"/><path class="cls-1" d="M19.87,19.81l0,0h0l0,0A2,2,0,0,0,21,18.7a3.78,3.78,0,0,0,.17-.92,2.6,2.6,0,0,0-.26-1.09,1.72,1.72,0,0,0-1.05-1,4,4,0,0,0-.86-.13,3.16,3.16,0,0,0-1.17.25,2.06,2.06,0,0,0-1.09,1,2.64,2.64,0,0,0-.25,1,2,2,0,0,0,.22.91,2.06,2.06,0,0,0,1.14,1.05A3.63,3.63,0,0,0,19,20,2.29,2.29,0,0,0,19.87,19.81Zm-2.17-1.2a1.1,1.1,0,0,1-.38-.8.93.93,0,0,1,0-.23,1.57,1.57,0,0,1,.67-.92,1.7,1.7,0,0,1,1-.32l.19,0a1.39,1.39,0,0,1,1,.61,1.36,1.36,0,0,1,.25.78,1.26,1.26,0,0,1-.06.38,1.54,1.54,0,0,1-.76.91,1.8,1.8,0,0,1-.6.1A1.89,1.89,0,0,1,17.7,18.61Z"/><path class="cls-1" d="M21.73,22.78a4.82,4.82,0,0,1-.6.07H21l-.8,0h-.62a8.46,8.46,0,0,0-.87.05.41.41,0,0,0-.41.41,2.44,2.44,0,0,0,0,.27,2.82,2.82,0,0,0,.13.89,1.23,1.23,0,0,0,.79.78,3.73,3.73,0,0,0,.94.12h.66A9.45,9.45,0,0,0,23.24,25c.17-.07.26-.14.27-.23a.71.71,0,0,0,0-.17.39.39,0,0,0-.11-.29.34.34,0,0,0-.27-.12l-.12,0a9.91,9.91,0,0,1-2.55.33H20a1,1,0,0,1-.72-.22.94.94,0,0,1-.18-.62h1.11a10.17,10.17,0,0,0,1.09-.05,2.72,2.72,0,0,0,1.33-.4,1.14,1.14,0,0,0,.5-1c0-.08,0-.16,0-.25a1,1,0,0,0-.72-.81A4.36,4.36,0,0,0,21.16,21l-.32,0c-.57,0-1.11.08-1.59.14a6.31,6.31,0,0,1-.82.08.39.39,0,0,0-.33.18.69.69,0,0,0-.06.24.48.48,0,0,0,0,.2.35.35,0,0,0,.35.2,9.71,9.71,0,0,0,1.19-.1l.94-.08h.37A4.53,4.53,0,0,1,22,22q.22.06.27.15a.33.33,0,0,1,0,.14.39.39,0,0,1-.12.24A.84.84,0,0,1,21.73,22.78Z"/><path class="cls-1" d="M2.32,29.39a.42.42,0,0,0-.21-.06l-.13,0a7.22,7.22,0,0,0-.95.4,3.69,3.69,0,0,0-.91.63.44.44,0,0,0-.12.29A.42.42,0,0,0,.12,31a.42.42,0,0,0,.29.12A.44.44,0,0,0,.7,31a3.28,3.28,0,0,1,1.09-.66c.05.52.08,1.05.08,1.58,0,.79,0,1.58-.09,2.38s-.1,1.55-.1,2.32c0,.31,0,.62,0,.93a.42.42,0,0,0,.14.28.4.4,0,0,0,.27.11h0a.39.39,0,0,0,.27-.13.41.41,0,0,0,.11-.28v0c0-.28,0-.58,0-.87q0-1.11.09-2.28s0-.07,0-.11c.07-.77.1-1.54.1-2.3a12.86,12.86,0,0,0-.19-2.24A.36.36,0,0,0,2.32,29.39Z"/><path class="cls-1" d="M9.19,37.06c-.68-.08-1.37-.13-2.09-.16h0l-.38,0-1.3-.1A2,2,0,0,1,6,35.63a7,7,0,0,1,1.14-.82,7.29,7.29,0,0,0,1.33-1,2.73,2.73,0,0,0,.78-1.59c0-.1,0-.21,0-.31a2.23,2.23,0,0,0-1-2,2.58,2.58,0,0,0-2.61,0,2,2,0,0,0-1,1.77,1.73,1.73,0,0,0,0,.32.38.38,0,0,0,.13.26.45.45,0,0,0,.27.1h0a.5.5,0,0,0,.27-.14A.44.44,0,0,0,5.53,32V32a1.55,1.55,0,0,1,0-.22,1.2,1.2,0,0,1,.18-.69,1.27,1.27,0,0,1,.4-.4,1.69,1.69,0,0,1,1.72,0,1.33,1.33,0,0,1,.63,1.22c0,.08,0,.17,0,.26a1.91,1.91,0,0,1-.59,1.15,6.45,6.45,0,0,1-1.14.83,7.34,7.34,0,0,0-1,.68,3.37,3.37,0,0,0-.82.94,2.72,2.72,0,0,0-.33,1.41.38.38,0,0,0,.1.27.5.5,0,0,0,.26.13c.55.06,1.14.11,1.76.14l.36,0h.08c.67,0,1.33.08,2,.14h.05a.39.39,0,0,0,.27-.1.38.38,0,0,0,.13-.26v0a.35.35,0,0,0-.1-.26A.43.43,0,0,0,9.19,37.06Z"/><path class="cls-1" d="M12.92,30.4a.41.41,0,0,0-.4.4v1.14a.38.38,0,0,0,.12.29.38.38,0,0,0,.28.12.41.41,0,0,0,.41-.41V30.8a.38.38,0,0,0-.12-.28A.38.38,0,0,0,12.92,30.4Z"/><path class="cls-1" d="M13.33,35.47a.4.4,0,0,0-.12-.29.38.38,0,0,0-.29-.12.38.38,0,0,0-.28.12.4.4,0,0,0-.12.29,3.55,3.55,0,0,1,0,.46s0,0,0,0a2.61,2.61,0,0,0,0,.4,2.65,2.65,0,0,0,.07.63.42.42,0,0,0,.39.28l.14,0a.35.35,0,0,0,.22-.21.27.27,0,0,0,.05-.18.69.69,0,0,0,0-.13,1.2,1.2,0,0,1,0-.35,2.38,2.38,0,0,1,0-.36A4.63,4.63,0,0,0,13.33,35.47Z"/><path class="cls-1" d="M20.8,31.65a3.71,3.71,0,0,0-1-1.27,2.07,2.07,0,0,0-1.35-.5,2,2,0,0,0-.47.06,2.12,2.12,0,0,0-1.27.89,4.22,4.22,0,0,0-.59,1.37A6,6,0,0,0,16,33.29c0,.15,0,.3,0,.45a5.54,5.54,0,0,0,.51,2.37,2.37,2.37,0,0,0,1.62,1.39,1.89,1.89,0,0,0,.47.06,2,2,0,0,0,1.52-.7,4,4,0,0,0,.86-1.6,6.52,6.52,0,0,0,.27-1.77c0-.09,0-.19,0-.27A4.42,4.42,0,0,0,20.8,31.65ZM20.19,35a3.14,3.14,0,0,1-.68,1.28,1.21,1.21,0,0,1-.93.44l-.3,0a1.52,1.52,0,0,1-.9-.66,3.14,3.14,0,0,1-.45-1.15,5.91,5.91,0,0,1-.13-1.19c0-.13,0-.25,0-.36a4.54,4.54,0,0,1,.39-1.65,1.6,1.6,0,0,1,1-1,1.18,1.18,0,0,1,.27,0,1.31,1.31,0,0,1,.91.39,3.4,3.4,0,0,1,1,2.17,2.44,2.44,0,0,1,0,.27A5.38,5.38,0,0,1,20.19,35Z"/><path class="cls-1" d="M27.66,33.22a4.42,4.42,0,0,0-.42-1.57,3.71,3.71,0,0,0-1-1.27,2.07,2.07,0,0,0-1.34-.5,1.89,1.89,0,0,0-.47.06,2.09,2.09,0,0,0-1.27.89,4,4,0,0,0-.59,1.37,6.24,6.24,0,0,0-.17,1.09c0,.15,0,.3,0,.45a5.69,5.69,0,0,0,.5,2.37,2.42,2.42,0,0,0,1.62,1.39,2,2,0,0,0,.47.06,2,2,0,0,0,1.52-.7,3.93,3.93,0,0,0,.86-1.6,6.52,6.52,0,0,0,.27-1.77A2.35,2.35,0,0,0,27.66,33.22Zm-1,1.8A3.13,3.13,0,0,1,26,36.3a1.25,1.25,0,0,1-.94.44l-.3,0a1.58,1.58,0,0,1-.9-.66,3.14,3.14,0,0,1-.45-1.15,6.74,6.74,0,0,1-.13-1.19c0-.13,0-.25,0-.36a4.74,4.74,0,0,1,.38-1.65,1.6,1.6,0,0,1,1-1,1.27,1.27,0,0,1,.28,0,1.33,1.33,0,0,1,.91.39,3.33,3.33,0,0,1,1,2.17,2.45,2.45,0,0,1,0,.27A5.41,5.41,0,0,1,26.63,35Z"/></g></g></svg>