<svg xmlns="http://www.w3.org/2000/svg" viewBox="0 0 55.95 19.75"><defs><style>.cls-1{fill:#222;}</style></defs><g id="Layer_2" data-name="Layer 2"><g id="레이어_1" data-name="레이어 1"><path class="cls-1" d="M7.76,11a.94.94,0,0,1,.64,0,3.07,3.07,0,0,1,1.12.7.5.5,0,0,1,0,.64,5,5,0,0,0-.74,1.94c-.24,1.29.39,2,.68,2.05a.44.44,0,0,0,.32-.07l.65-3.19c.08-.43-.05-.64-.18-.73a.3.3,0,0,1,0-.24c.07-.39.65-.63,1.24-.51,1,.2,2.11.69,2,1.3l-.77,3.81a1.09,1.09,0,0,0,.1.8c0,.64-.9.92-1.77.75a1.51,1.51,0,0,1-1.1-.92,2.5,2.5,0,0,1-1.95.3,2.06,2.06,0,0,1-1.74-2.19,7.21,7.21,0,0,1,.54-3.32A2.16,2.16,0,0,1,7.76,11Z"/><path class="cls-1" d="M23.31,14.75c0,1.12.14,1.92.14,2.16a.22.22,0,0,1-.23.2,13.61,13.61,0,0,1-1.51.12,17,17,0,0,1-1.77-.12c-.11,0-.17-.1-.17-.25s.12-1.28.12-2.06v-.94H18.63v.89c0,1.12.15,1.92.15,2.16s-.1.18-.22.2a13.47,13.47,0,0,1-1.6.12,11.59,11.59,0,0,1-1.71-.12c-.11,0-.17-.1-.17-.25s.13-1.28.13-2.06V11.54a4.49,4.49,0,0,0-.31-1.89c0-.46.49-.92,1.89-.92a4.47,4.47,0,0,1,2.07.64,6.68,6.68,0,0,0-.23,2v1.07h1.26v-.91a4.52,4.52,0,0,0-.3-1.89c0-.46.55-.92,2-.92a4.65,4.65,0,0,1,1.61.41.51.51,0,0,1,.27.57,9.26,9.26,0,0,0-.13,1.67Z"/><path class="cls-1" d="M23.73,11.06c0-.36.77-.9,2-.9,1.41,0,1.8,1.64,2,2.89.15,1,.3,2.22.39,2.62a6.19,6.19,0,0,0,.39-2.25,2.88,2.88,0,0,0-.82-2.17.22.22,0,0,1-.09-.17,1.79,1.79,0,0,1,1.67-1c1.23,0,2.33.63,2.33,2.65s-2.34,4.21-2.67,4.51a1.6,1.6,0,0,0-.4,1.12,2,2,0,0,0,.35,1.05,3.17,3.17,0,0,1-1.69.38c-.93,0-1.66-.48-1.66-1.17a2,2,0,0,1,.95-1.42A3.26,3.26,0,0,1,25.43,16a12.08,12.08,0,0,1-1.18-3.4,5.08,5.08,0,0,0-.46-1.38A.22.22,0,0,1,23.73,11.06Z"/><path class="cls-1" d="M43.45,17.35a3.5,3.5,0,0,1-3.74-3.56,3.84,3.84,0,0,1,3.89-3.63c2.29,0,3.74,1.2,3.74,3.43A3.73,3.73,0,0,1,43.45,17.35Zm.74-3.14c0-2.12-.42-2.67-.82-2.67s-.5.78-.5,1.82c0,1.88.44,2.64.81,2.64S44.19,15.07,44.19,14.21Z"/><path class="cls-1" d="M29.67,1.4c0,1-1,2-2.15,2.94a40.08,40.08,0,0,1,2.3,3.59c1,1.15,1.3,1.61-1,1.4-.61-.05-1.08.64-1.44.54,0,0-.68.12-1-1.85a13.5,13.5,0,0,0-.95-2.25h0v.11c0,1.11.15,1.92.15,2.16s0,.6,0,.72c-.24,1.11-1.06.5-1.63,0a2.16,2.16,0,0,0-1.78-.67c-.25,0-.43-.21-.35-.52A6.83,6.83,0,0,0,22,5.94V2.67A4,4,0,0,0,21.67.9c0-.47.48-.9,1.89-.9a3.87,3.87,0,0,1,2.07.62,5.89,5.89,0,0,0-.23,1.9V3.77a6.07,6.07,0,0,0,.9-2.11,1.31,1.31,0,0,0-.28-1C26,.32,27,0,27.77,0,28.77,0,29.67.53,29.67,1.4Z"/><path class="cls-1" d="M37.15,6c0,.37-.74.6-1.67.6-.35,0-.73,0-1.08,0a.73.73,0,0,0-.77.86c.15.77.41,1.24.69,1.24s.36-.27.36-.59a2.52,2.52,0,0,0-.08-.56,1.08,1.08,0,0,1,.7-.22A2.61,2.61,0,0,1,36.91,8a.75.75,0,0,1-.07,1,3.43,3.43,0,0,1-3,.56c-2-.46-3.53-.94-3.53-3.23A3.54,3.54,0,0,1,34,2.56C35.89,2.56,37.15,3.41,37.15,6Zm-3.66-.28a2.65,2.65,0,0,0,1-.16c0-1.21-.22-1.91-.51-1.91S33.49,4.59,33.49,5.76Z"/><path class="cls-1" d="M39.21,12.48c0,.34-1.54,1.53-2.4,1.53-.32,0-.67,0-1,0a.68.68,0,0,0-.71.8c.13.7.39,1,.63,1.13a1,1,0,0,0,1.46-.7,1.82,1.82,0,0,0-.08-.52,1.06,1.06,0,0,1,.65-.19,2.39,2.39,0,0,1,1.48.58.68.68,0,0,1-.06.94c-.51.5-.88,1.85-4.61,1.13-1.88-.37-2.5-1.31-2.5-3.42a3.28,3.28,0,0,1,3.39-3.46C37.8,10.2,39,10.39,39.21,12.48ZM35,13.2a2.71,2.71,0,0,0,.91-.14c0-1.12-.2-1.77-.47-1.77S35,12.12,35,13.2Z"/><path class="cls-1" d="M44.18,6.39c0,.37-.74.59-1.66.59a13.37,13.37,0,0,1-2-.15c0,1.32.41,2.21.79,2.21s.36-.27.36-.59a2.07,2.07,0,0,0-.08-.57,1.17,1.17,0,0,1,.71-.21c.67,0,2.3.1,1.7,1.3-.2.42-1.88.67-3.14,1.13C39,10.81,37.37,9,37.37,6.66a3.54,3.54,0,0,1,3.68-3.75C42.92,2.91,44.18,3.76,44.18,6.39Zm-3.65-.28a2.63,2.63,0,0,0,1-.16C41.51,4.74,41.29,4,41,4S40.53,4.93,40.53,6.11Z"/><path class="cls-1" d="M49.42,2.57a2.53,2.53,0,0,1,2.1.86,3.12,3.12,0,0,1,2.17-.86,2,2,0,0,1,2,1.64v3.7c0,.39.12,1.15.12,1.34a3.12,3.12,0,0,0,.1.53s0,.75-1.63-.22a1.54,1.54,0,0,0-1.45-.27c-.08,0-.38.15-.38,0s.08-1.09.08-1.46V5.46c0-.49-.18-.93-.48-.93a.47.47,0,0,0-.31.14V7.61c0,.72.34,1.26.12,1.69-.06.11.08,0,0,0a1.15,1.15,0,0,1-1.75.35c-.48-.28-1.21-.05-1.45-.09s-.16-.14-.16-.25a11.7,11.7,0,0,0,.09-1.21V5.33c0-.53-.18-.8-.44-.8a.53.53,0,0,0-.36.14V7c0,1.27.16,2.05.08,2.5h0a1,1,0,0,1-.71.93c-.69.19-.94-1-2.34-1-.09,0-.21-.11-.21-.22s0-.4,0-1.07v-3a2.21,2.21,0,0,0-.47-1.3,1.41,1.41,0,0,1,1.49-1,1.89,1.89,0,0,1,1.68.79A2.1,2.1,0,0,1,49.42,2.57Z"/><path class="cls-1" d="M53,10a2.11,2.11,0,0,1,2.21,2v3.11a9.83,9.83,0,0,0,.12,1.47c0,.16-.06.28-.15.31a5.56,5.56,0,0,1-1.58.15A6.31,6.31,0,0,1,52.14,17a.22.22,0,0,1-.17-.23c0-.21.05-.7.05-.9V12.91c0-.51-.2-.93-.58-.93a.51.51,0,0,0-.31.11v3c0,.74.11,1.36.11,1.6s-.16.26-.23.29a6.07,6.07,0,0,1-1.5.13A6.69,6.69,0,0,1,48.13,17c-.15,0-.25-.12-.25-.28a9.64,9.64,0,0,0,.1-1V12.22a1.34,1.34,0,0,0-.4-1c0-.44.91-1,1.65-1a1.68,1.68,0,0,1,1.58.81A2.47,2.47,0,0,1,53,10Z"/><path class="cls-1" d="M8.45,9.06a.28.28,0,0,1-.09.36c-.28.19-.47.33-.89.66s-1.71,1.74-1.7,5.27v.53a13.16,13.16,0,0,0,.12,1.44c0,.15,0,.23-.17.26A13.14,13.14,0,0,1,4,17.69a10.15,10.15,0,0,1-1.51-.11c-.13,0-.22-.1-.22-.21a12.94,12.94,0,0,0,.14-1.54v-.48C2.36,14.71,0,11.6,0,9.91A1.72,1.72,0,0,1,1.78,8.13,2.85,2.85,0,0,1,3.94,9a.18.18,0,0,1,0,.23,2.1,2.1,0,0,0-.55,1.39A4.85,4.85,0,0,0,4,12.91c.28.29.09-2.22.69-3.38a1.71,1.71,0,0,1,2-1.15C7.59,8.38,8.26,8.68,8.45,9.06Z"/></g></g></svg>