<svg xmlns="http://www.w3.org/2000/svg" viewBox="0 0 30.91 18.09"><defs><style>.cls-1{fill:#222;}</style></defs><g id="Layer_2" data-name="Layer 2"><g id="레이어_1" data-name="레이어 1"><path class="cls-1" d="M4.44,15.49c0,1.12.16,1.92.16,2.16s-.12.18-.23.21A7.56,7.56,0,0,1,2.78,18a11.73,11.73,0,0,1-1.72-.12C1,17.83.9,17.75.9,17.6a5.56,5.56,0,0,0,.36-1.52L1,12.28A3.84,3.84,0,0,0,.71,10.5c0-.46.48-.9,1.9-.9a4.39,4.39,0,0,1,2.06.63,6.06,6.06,0,0,0-.23,1.89Z"/><path class="cls-1" d="M10.44,10.9a2.11,2.11,0,0,1,2.2,2V16a9.14,9.14,0,0,0,.13,1.48.31.31,0,0,1-.16.31A5.48,5.48,0,0,1,11,18a6.31,6.31,0,0,1-1.43-.14.21.21,0,0,1-.17-.22c0-.21.05-.7.05-.9V13.8c0-.51-.19-.93-.58-.93a.52.52,0,0,0-.31.1v3c0,.73.11,1.36.11,1.6a.36.36,0,0,1-.23.28A5.55,5.55,0,0,1,7,18a6.69,6.69,0,0,1-1.38-.12c-.15-.05-.25-.13-.25-.28a9.62,9.62,0,0,0,.1-1V13.11a1.28,1.28,0,0,0-.4-1c0-.44.91-1,1.66-1a1.69,1.69,0,0,1,1.57.8A2.5,2.5,0,0,1,10.44,10.9Z"/><path class="cls-1" d="M22.87,15.61c0,1.12.14,1.92.14,2.16a.21.21,0,0,1-.22.2,13.61,13.61,0,0,1-1.52.12A17,17,0,0,1,19.5,18c-.11,0-.17-.1-.17-.25s.12-1.28.12-2.06v-.94H18.19v.89c0,1.12.16,1.92.16,2.16s-.11.18-.23.2a13.3,13.3,0,0,1-1.6.12A11.7,11.7,0,0,1,14.81,18c-.11,0-.17-.1-.17-.25s.13-1.28.13-2.06V12.4a6.71,6.71,0,0,0-.32-2.14.28.28,0,0,1,0-.15c.06-.44.57-.84,1.89-.84A5.15,5.15,0,0,1,18,9.68a.53.53,0,0,1,.29.58,12.71,12.71,0,0,0-.09,2v1.07h1.26V12.4a5.22,5.22,0,0,0-.24-1.78.37.37,0,0,1-.05-.23c.1-.42.67-.8,2-.8a4.59,4.59,0,0,1,1.69.45.42.42,0,0,1,.21.48,7.87,7.87,0,0,0-.15,1.72Z"/><path class="cls-1" d="M30.52,13.5V16c0,.51.18.92.29.95a.25.25,0,0,1,.1.21c0,.62-1.07.89-1.5.89-1,0-1.33-.28-1.62-.76a2.77,2.77,0,0,1-2.22.76c-1.2,0-2.16-.44-2.16-1.43a1.84,1.84,0,0,1,1.48-1.73,7.41,7.41,0,0,1,2.48-.42c0-1.7-.28-2.48-.6-2.48s-.44.28-.44.85a2.24,2.24,0,0,0,.21,1,2.73,2.73,0,0,1-1.66.5,1.15,1.15,0,0,1-1.17-1.3c0-1.39,1.73-2.19,3.58-2.19S30.52,11.63,30.52,13.5ZM26.87,17c.19,0,.43-.3.5-.58V15.2a1,1,0,0,0-.91.94C26.46,16.67,26.64,17,26.87,17Z"/><path class="cls-1" d="M13.77,6.25c.08.36-.59.76-1.48,1-.35.08-.73.15-1.07.21a.73.73,0,0,0-.55,1c.32.71.69,1.1,1,1s.29-.34.21-.66a1.89,1.89,0,0,0-.21-.53,1.19,1.19,0,0,1,.64-.37A2.59,2.59,0,0,1,14,8.17a.75.75,0,0,1,.17,1,3.45,3.45,0,0,1-2.75,1.25c-2.08,0-3.66-.1-4.19-2.33a3.53,3.53,0,0,1,2.7-4.5C11.73,3.16,13.16,3.7,13.77,6.25Zm-3.62.58a2.74,2.74,0,0,0,.92-.38c-.29-1.17-.66-1.81-.94-1.75S9.87,5.69,10.15,6.83Z"/><path class="cls-1" d="M21.15,6.17c-.11.36-.88.37-1.77.12a14.09,14.09,0,0,1-1.84-.68c-.31,1.28-.21,2.23.16,2.34s.42-.16.51-.47a2.28,2.28,0,0,0,.07-.57,1.1,1.1,0,0,1,.74,0c.64.18,2.18.72,1.29,1.71C20,9,18.78,9.06,17,8.85c-2.06-.24-3.08-2.07-2.45-4.28A3.53,3.53,0,0,1,19.08,2C20.88,2.48,21.86,3.64,21.15,6.17ZM17.7,4.9a2.48,2.48,0,0,0,1,.12c.33-1.16.32-1.9,0-2S18,3.77,17.7,4.9Z"/><path class="cls-1" d="M3.93,7.15a2.07,2.07,0,0,0,1.75-.62.4.4,0,0,1,.23-.08c.26,0,.85,1,.85,1.77,0,.93-.34,1.47-1.12,1.47S3.66,9,2.69,9a4.69,4.69,0,0,0-2,.41c-.19,0-.33-.09-.33-.22,0-.44.07-.77.07-1.27V2.51A2.12,2.12,0,0,0,0,1.2C0,.42.78,0,2,0A3.57,3.57,0,0,1,4.36.68c.44.47-.23.39-.24,1.19Z"/></g></g></svg>