<svg xmlns="http://www.w3.org/2000/svg" viewBox="0 0 70.75 36.75"><g id="Layer_2" data-name="Layer 2"><g id="레이어_1" data-name="레이어 1"><path d="M10.61,16.76v8.4H7.78v-3.1H2.83v3.1H0v-8.4H2.83v3h5v-3Zm43.1,3.17c0,1.94-1.49,3.16-3.82,3.16H48.67v2.07H45.84v-8.4h4C52.22,16.76,53.71,18,53.71,19.93Zm-2.85,0c0-.62-.38-1-1.15-1h-1v2h1C50.48,20.91,50.86,20.54,50.86,19.93Zm11.33-.11c0,1.94-1.48,3.17-3.82,3.17H57.16v2.06H54.33V16.66h4C60.71,16.66,62.19,17.88,62.19,19.82Zm-2.85,0c0-.61-.37-1-1.15-1h-1v2h1C59,20.81,59.34,20.43,59.34,19.82Zm8.25,2.29v3.05H64.76V22.07l-3.17-5.31h3l1.71,2.9L68,16.76h2.73Zm-53.3,6.05-2.68,8.4h-3L7.22,32.07,5.79,36.56h-3L.07,28.16H3l1.47,4.77L6,28.16H8.6L10.06,33l1.55-4.83Zm7.62,6.26v2.14h-7v-8.4h6.82v2.13h-4v1h3.55v2H17.71v1.1ZM23,28.16h4.14c2.81,0,4.74,1.6,4.74,4.2s-1.93,4.2-4.74,4.2H23Zm4,6.19a2,2,0,1,0,0-4H25.83v4Zm5.53-6.22h4.13c2.81,0,4.74,1.59,4.74,4.19s-1.93,4.2-4.74,4.2H32.55Zm4,6.18a2,2,0,1,0,0-4H35.38v4Zm5.51-6.15H44.9v8.4H42.07Zm12.13,0v8.4H51.87l-3.19-3.82v3.82H45.92v-8.4h2.33L51.44,32V28.16Zm6.65,4H63.3v3.55a6.71,6.71,0,0,1-3.65,1.07A4.38,4.38,0,0,1,55,32.36c0-2.58,2-4.39,4.75-4.39a4.73,4.73,0,0,1,3.83,1.62l-1.81,1.59a2.4,2.4,0,0,0-1.88-.92,1.92,1.92,0,0,0-2,2.1,1.93,1.93,0,0,0,2,2.1,2.58,2.58,0,0,0,1-.21Zm6.49-4.22,3.06,1-2.18,4.74-2-.7Zm-2.25,6.71a1.59,1.59,0,0,1,3,1,1.59,1.59,0,0,1-3-1ZM4,2.68c.78,0,1.45,1,2,2.91H5.81L6,6Q4.43,9.15,2.47,9.15A3.16,3.16,0,0,1,.23,6q1-3.35,3.58-3.35ZM1.13,6.26q.15,2,1.56,2c1,0,1.85-.75,2.67-2.24L4.48,3.35H3.59l-2,1.34ZM7.59,1.93,8,2.07l.07,0a.16.16,0,0,1,0,.1c.06,1.63.1,3.26.2,4.89a11.69,11.69,0,0,0,.33,2.82l-.35.17c-.35,0-.58-1.16-.7-3.47l.15,0A.58.58,0,0,1,7.66,6a.94.94,0,0,0,.06-.15.42.42,0,0,0-.08-.2.55.55,0,0,1,0-.42.33.33,0,0,0,.17.12h0c-.3,0-.14-.18-.15-.19s0,0,0-.06c-.13-.62,0-1.35-.18-2,0,0,.1,0,.11,0a.39.39,0,0,1-.07-.23A3.42,3.42,0,0,1,7.59,1.93Zm3.88,1.72a1.18,1.18,0,0,0,.52.17c0-.11.06-.17.18-.17,0,.27.34.44,1,.52a2.06,2.06,0,0,1,.69,1.75c0,1.21-.87,2.14-2.61,2.78a1.94,1.94,0,0,1-1.22-2.09V6.27A3.42,3.42,0,0,1,11.47,3.65ZM10.6,6.09v.52A1.32,1.32,0,0,0,11.47,8c1.28-.56,1.92-1.31,1.92-2.26a1.08,1.08,0,0,0-1.22-1.22A1.39,1.39,0,0,0,10.6,6.09Zm3.82,3.83c.21,0,.5.63.87,1.91h.18a21.54,21.54,0,0,0,3-.52h.35v.52a12.75,12.75,0,0,1-3.83.7,6.66,6.66,0,0,1-.7-2.09A1.38,1.38,0,0,0,14.42,9.92Zm2.09-7.49h.18c.18,0,.41.52.69,1.57l-.17.7a40,40,0,0,0,.35,4.69L17,9.74h-.18V8.87l-.17-1.22V7.31h0c0-.12-.06-.17.06-.17l-.24-1.57a1.38,1.38,0,0,0,.18-.7A4.3,4.3,0,0,0,16.34,3,1.33,1.33,0,0,0,16.51,2.43Zm10,.52v.53h-.17q-.64,0-5.22.69c-.58-.15-.87-.32-.87-.52V3.28l.55.14.32.06A27.07,27.07,0,0,1,26.48,3ZM21.61,0h.7c0,.36.69,1.06,2.09,2.08V2.6h-.52c0-.18-.76-.82-2.27-1.9Zm2.44,4.87h.7a2.64,2.64,0,0,1,1.38,1.57,3.16,3.16,0,0,1-2.08,3.14h-.7c-.58-.21-.87-.73-.87-1.57V7.49C23.15,5.78,23.67,4.9,24.05,4.87Zm0,.52a7.89,7.89,0,0,0-.87,3,1.33,1.33,0,0,1,.17.52h.18c1.27-.19,1.9-.83,1.9-1.92V6.79A1.23,1.23,0,0,0,24.05,5.39Zm4.7-3.83h.35V5.39c0,.12,0,.4-.06.4.11.23.06.18.06.3S29.89,6,31,5.74l.18.35v.18c-1.4.3-2.09.59-2.09.87V8.36a1.31,1.31,0,0,0,.17.69l0,.39c.11.2,0,.39,0,.66a.31.31,0,0,1-.35.35c-.35,0-.52-.93-.52-2.79V6.44c0-.26.09-.44,0-.65.11-.2,0-.49,0-.75V3.48c0-.12.06-.18.17-.18L28.4,3v-1C28.43,1.67,28.55,1.56,28.75,1.56Zm9.69-.34q.6,0,6.09,1v.52c-1.74,2.41-2.61,4-2.61,4.71h-.34a.31.31,0,0,1-.35-.35c0-.84.69-2,2.08-3.49a1.11,1.11,0,0,1,.35-.87v0c-1-.21-1.63-.24-1.63-.39l-.28,0c-2.33-.39-3.49-.68-3.49-.87Zm8.88,7c.46,0,.75.58.87,1.75q-.24,2.43-.87,2.43l-3.14.34H44c-.08,0-.09-.15-.18-.19,0-.25-.07-.48,0-.73a.34.34,0,0,0,0-.2c0-.07,0-.18,0-.16a5.23,5.23,0,0,0,.07-1.37c0-.1-.1-1,0-1A12.41,12.41,0,0,1,47.32,8.18Zm-.94.72-.11,0q-1.92.57-1.92.87v1.73l.35.53,1.22-.18h1c.27,0,.44-.87.52-2.6a1.22,1.22,0,0,1-.17-.52A1.69,1.69,0,0,1,46.38,8.9Zm.24-7.68h.17A12.61,12.61,0,0,1,47,3c0,.55.08,1.1.07,1.65A4.71,4.71,0,0,0,47,6.17c0,.12.12.25.07.37a.5.5,0,0,1-.08.14c-.06.12.19,1,.13,1l-.35.17h-.17c0-.46-.12-.69-.35-.69,0,0,.13-.63.14-.68a2.93,2.93,0,0,0-.07-1,.72.72,0,0,1,.18-.68.14.14,0,0,0,.06-.07.43.43,0,0,0,0-.05,4.06,4.06,0,0,1-.12-1.51l-.18-1.75Zm10.49,6.6.17.35v.18l-.87.17H56c-.3,0-.33,0-.3.3L55.82,10a3.2,3.2,0,0,1,.09.54c0,.15-.12.25-.14.4a.38.38,0,0,0,0,.21c.1.38.66,1.87-.15,1.73-.15,0-.3-.1-.45-.13V10.43a1.66,1.66,0,0,0-.1-.71c0-.05-.11-.16-.05-.15s.27-.11.07-.17.06-.28,0-.42-.08-.25-.25-.26a3.71,3.71,0,0,0-1,.13h-.06l0,0c-.06-.09-.25,0-.35,0s-.12,0-.23,0H53c-.22.07-.09.63-.09.8v1.12c0,.87.09,1.74.16,2.61a.35.35,0,0,1-.38-.11.94.94,0,0,1-.18-.36,7.77,7.77,0,0,1-.24-1.43,3,3,0,0,1,0-1.19.58.58,0,0,0,0-.26,1,1,0,0,0-.1-.32.33.33,0,0,1,0-.32s0-.21.06-.25C52.48,9,52,9,51.89,9a11.38,11.38,0,0,1-2.27.35V8.87C51.59,8.52,54.08,8.17,57.11,7.82ZM53.28,2.43H54c0,.21.41.5,1.22.87a6.58,6.58,0,0,1,.35,1.57,3.17,3.17,0,0,1-2.78,1.92c-.93,0-1.39-.76-1.39-2.27A4.39,4.39,0,0,1,53.28,2.43ZM52.06,4.87v.52c0,.18.24.41.7.7a1.83,1.83,0,0,0,2.08-1.57V4c0-.17-.35-.46-1-.87Q52.06,3.47,52.06,4.87Zm7-4.7q1.78,1.74,2.61,1.74c0,.11.12.17.35.17V2.6A4.54,4.54,0,0,1,58.72.7V.52C58.75.29,58.87.17,59.07.17Zm4.87,2.26c0,.12.52-.07.17.52a9,9,0,0,0-2.25.53L59.07,4a.16.16,0,0,0-.18-.18c0-.31.58-.6,1.75-.87.11,0,.17.06.17.18ZM61.33,4.7c.12,0,.18,0,.18.17l.35-.17h.52c1.39.11,2.08.69,2.08,1.74,0,.8-.93,1.44-2.78,1.92-.74-.31-1.15-.6-1.22-.87V5.74C60.87,5,61.16,4.7,61.33,4.7ZM61,6.27v1a2,2,0,0,1,.88.35,2.46,2.46,0,0,0,2.25-1.57L62.73,5h-.18a5,5,0,0,0-1.39,1.23ZM67.6,2.08H68l.19,1.37c0,.21,0,.47-.17.55.11,0,.15.68.15.75,0,.32,0,.65,0,1a5.51,5.51,0,0,1-.06.57,4.34,4.34,0,0,0-.09.52,2.59,2.59,0,0,0,.15.61.28.28,0,0,1,0,.18.12.12,0,0,1-.16.06l.25.76c0,.07,0,.8-.08.8h-.35A6.23,6.23,0,0,1,67.44,8a7.67,7.67,0,0,1-.19-1.58c-.34.19-.69.38-1,.54a1.85,1.85,0,0,1-.52.16v-.7a6.77,6.77,0,0,1,1-.4l.75-.3V5.19a2.26,2.26,0,0,1,0-.45c0-.13.15-.21.15-.36s0,.77-.08.66-.11-.26-.17-.38c-.19-.34-.72-.07-1,0L64.91,5s-.06,0-.08,0,0,0,0,0V4.62a.18.18,0,0,1,0-.1c0-.06.12-.07.2-.08.38,0,.68-.35,1-.45a2.5,2.5,0,0,1,1.21-.1c.09,0,.18,0,.12.17s0-.09.06-.14C67.5,3.64,67.55,2.36,67.6,2.08Zm-1.74,7.5H66v.17c0,.12,0,.45-.1.45l.62,2.33a9.07,9.07,0,0,1,3.14-1v.7a26.18,26.18,0,0,0-3.31,1.22c-.47,0-.82-1.16-1-3.47ZM14.48,24.33q2-3.55,4.1-7l-2.8.74A17.34,17.34,0,0,1,18,21.79L20.14,26c.37.72,3.14-.31,2.9-.77l-2.23-4.34A17.7,17.7,0,0,0,18.51,17c-.25-.28-1.21,0-1.49,0s-1.06.3-1.3.71q-2.1,3.51-4.1,7.06c-.26.46,1,.31,1.16.29.51-.1,1.41-.29,1.7-.8Zm-3-1.77q4.13-.09,8.24.16a3,3,0,0,0,2-.54c.42-.34.39-.81-.23-.84-3-.19-5.91-.26-8.87-.19a2.67,2.67,0,0,0-1.93.74c-.41.53.36.68.74.67Zm15,3.59a40.66,40.66,0,0,0,1.32-9.74l-2.8,1q3.19,3.87,6.14,7.92c.61.84,3.41-.17,2.68-1.16q-3-4.05-6.13-7.92c-.38-.45-1.28-.28-1.74-.12s-1.07.49-1,1.09a39.1,39.1,0,0,1-1.32,9.31c-.26,1.14,2.67.7,2.9-.34Zm-2.64-2.82a32.51,32.51,0,0,1,7,.63,2.71,2.71,0,0,0,2.05-.55c.15-.13.36-.34.3-.57s-.35-.3-.55-.34A36.93,36.93,0,0,0,25,21.83a2.53,2.53,0,0,0-1.92.76c-.4.54.34.74.76.74Zm18.73,2.5c-.17-3.61-.45-7.23-.84-10.83,0-.44-1-.38-1.23-.35-.48.07-1.3.28-1.56.74a49.89,49.89,0,0,0-4.68,10.38c-.26.93,2.64.52,2.89-.4a47.82,47.82,0,0,1,4.47-10l-2.79.4q.59,5.4.84,10.83c0,.82,3,.27,2.9-.78ZM34.78,23q3.87-.11,7.74-.05a2.22,2.22,0,0,0,1.91-.82c.34-.58-.3-.94-.82-.95q-3.87-.06-7.74.05A2.26,2.26,0,0,0,34,22c-.33.57.29,1,.82.95Zm.28-17.41h1l.25,1.25a.44.44,0,0,1-.5.5h-.75c-.23,0-.48-.25-.74-.75V6.29C34.32,6.05,34.57,5.8,35.06,5.54Z"/></g></g></svg>